<svg width="1440" height="835" viewBox="0 0 1440 835" fill="none" xmlns="http://www.w3.org/2000/svg">
<g filter="url(#filter0_d)">
<path d="M2.28882e-05 0H1440C1440 0 1638.5 301.5 1440 464.5C1241.5 627.5 233.5 845.5 2.28882e-05 645.5C-233.5 445.5 7.62939e-06 367 7.62939e-06 367L2.28882e-05 0Z" fill="#00A8CC"/>
<path d="M2.28882e-05 0H1440C1440 0 1638.5 301.5 1440 464.5C1241.5 627.5 233.5 845.5 2.28882e-05 645.5C-233.5 445.5 7.62939e-06 367 7.62939e-06 367L2.28882e-05 0Z" fill="url(#paint0_linear)"/>
</g>
<defs>
<filter id="filter0_d" x="-167.778" y="-19" width="1760" height="853.593" filterUnits="userSpaceOnUse" color-interpolation-filters="sRGB">
<feFlood flood-opacity="0" result="BackgroundImageFix"/>
<feColorMatrix in="SourceAlpha" type="matrix" values="0 0 0 0 0 0 0 0 0 0 0 0 0 0 0 0 0 0 127 0"/>
<feOffset dy="45"/>
<feGaussianBlur stdDeviation="32"/>
<feColorMatrix type="matrix" values="0 0 0 0 0 0 0 0 0 0 0 0 0 0 0 0 0 0 0.25 0"/>
<feBlend mode="normal" in2="BackgroundImageFix" result="effect1_dropShadow"/>
<feBlend mode="normal" in="SourceGraphic" in2="effect1_dropShadow" result="shape"/>
</filter>
<linearGradient id="paint0_linear" x1="1180.5" y1="-158.999" x2="-36.9989" y2="692.001" gradientUnits="userSpaceOnUse">
<stop stop-color="#005082" stop-opacity="0.9"/>
<stop offset="0.777102" stop-color="white" stop-opacity="0"/>
</linearGradient>
</defs>
</svg>
