<svg width="294" height="353" viewBox="0 0 294 353" fill="none" xmlns="http://www.w3.org/2000/svg">
<rect width="294" height="353" rx="20" fill="#335056"/>
<rect width="294" height="70" rx="20" fill="#F3F3F3"/>
<rect y="25" width="294" height="307" fill="#335056"/>
<circle cx="21" cy="14" r="6" fill="#FF0000"/>
<circle cx="39" cy="14" r="6" fill="#FFC700"/>
<circle cx="57" cy="14" r="6" fill="#00FFFF"/>
<circle cx="12" cy="65" r="5" fill="white"/>
<circle cx="12" cy="83" r="5" fill="white"/>
<circle cx="12" cy="101" r="5" fill="white"/>
<circle cx="12" cy="119" r="5" fill="white"/>
<circle cx="12" cy="137" r="5" fill="white"/>
<circle cx="12" cy="155" r="5" fill="white"/>
<circle cx="12" cy="173" r="5" fill="white"/>
<circle cx="12" cy="191" r="5" fill="white"/>
<circle cx="12" cy="209" r="5" fill="white"/>
<circle cx="12" cy="47" r="5" fill="white"/>
<circle cx="12" cy="227" r="5" fill="white"/>
<circle cx="12" cy="245" r="5" fill="white"/>
<circle cx="12" cy="263" r="5" fill="white"/>
<circle cx="12" cy="281" r="5" fill="white"/>
<circle cx="12" cy="299" r="5" fill="white"/>
<circle cx="12" cy="317" r="5" fill="white"/>
<circle cx="12" cy="335" r="5" fill="white"/>
<rect x="27" y="44" width="136" height="6" rx="3" fill="#FFA800"/>
<rect x="27" y="80" width="65" height="6" rx="3" fill="#FFA800"/>
<rect x="43" y="225" width="65" height="6" rx="3" fill="#FFA800"/>
<rect x="27" y="278" width="77" height="6" rx="3" fill="#FFA800"/>
<rect x="27" y="332" width="37" height="6" rx="3" fill="#FFA800"/>
<rect x="156" y="278" width="77" height="6" rx="3" fill="#FFA800"/>
<rect x="134" y="98" width="65" height="6" rx="3" fill="#FFA800"/>
<rect x="95" y="206" width="26" height="6" rx="3" fill="#FFA800"/>
<rect x="128" y="206" width="87" height="6" rx="3" fill="#FFA800"/>
<rect x="27" y="62" width="43" height="6" rx="3" fill="#FF0000"/>
<rect x="27" y="171" width="133" height="6" rx="3" fill="#FF0000"/>
<rect x="99" y="188" width="133" height="6" rx="3" fill="#FF0000"/>
<rect x="43" y="260" width="106" height="6" rx="3" fill="#FF0000"/>
<rect x="94" y="296" width="7" height="6" rx="3" fill="#FF0000"/>
<rect x="164" y="171" width="6" height="6" rx="3" fill="#FF0000"/>
<rect x="180" y="225" width="6" height="6" rx="3" fill="#FF0000"/>
<rect x="43" y="98" width="17" height="6" rx="3" fill="#FF0000"/>
<rect x="75" y="62" width="126" height="6" rx="3" fill="#00C2FF"/>
<rect x="43" y="116" width="91" height="6" rx="3" fill="#00C2FF"/>
<rect x="43" y="152" width="17" height="6" rx="3" fill="#FF0000"/>
<rect x="65" y="152" width="17" height="6" rx="3" fill="#FF0000"/>
<rect x="66" y="98" width="62" height="6" rx="3" fill="#00C2FF"/>
<rect x="111" y="134" width="65" height="6" rx="3" fill="#FFA800"/>
<rect x="43" y="134" width="62" height="6" rx="3" fill="#00C2FF"/>
<rect x="27" y="314" width="107" height="6" rx="3" fill="#00C2FF"/>
<rect x="27" y="206" width="62" height="6" rx="3" fill="#00C2FF"/>
<rect x="27" y="296" width="62" height="6" rx="3" fill="#00C2FF"/>
<rect x="113" y="225" width="62" height="6" rx="3" fill="#00C2FF"/>
<rect x="113" y="278" width="34" height="6" rx="3" fill="#00C2FF"/>
<rect x="144" y="314" width="34" height="6" rx="3" fill="#00C2FF"/>
<rect x="27" y="188" width="62" height="6" rx="3" fill="#FFA41B"/>
<rect x="86" y="152" width="135" height="6" rx="3" fill="#00C2FF"/>
<rect x="43" y="242" width="43" height="6" rx="3" fill="#00C2FF"/>
</svg>
